
<svg width="181" height="35" viewBox="0 0 181 35" fill="none" xmlns="http://www.w3.org/2000/svg">
<path d="M32.143 15.2113C32.0414 13.9251 31.8381 12.6668 31.3554 11.4645C30.7202 9.87068 29.6785 8.69631 28.1286 8.16504C27.4172 7.91339 26.6804 7.94135 25.9436 7.94135C25.3846 7.94135 24.851 8.08116 24.3175 8.30485C23.0217 8.83611 22.0816 9.84272 21.2177 10.9891C20.303 12.2194 19.5154 13.5895 18.7532 14.9596C17.8639 16.6093 16.9492 19.042 16.06 20.6637C15.4502 19.042 14.256 16.6093 13.3667 14.9596C12.6299 13.5895 11.8423 12.2474 10.9022 10.9891C10.0383 9.84272 9.09825 8.80815 7.80246 8.30485C7.26889 8.08116 6.73533 7.94135 6.17636 7.94135C5.43954 7.94135 4.70272 7.91339 3.9913 8.16504C2.49225 8.69631 1.47594 9.84272 0.840745 11.4645C0.357999 12.6668 0.154737 13.9251 0.0531064 15.2113C0.00229101 15.9103 -0.0231167 16.6093 0.0276987 17.3363C0.0785141 18.5107 0.205553 19.6851 0.408814 20.8315C0.739114 22.7049 1.29808 24.5224 2.11113 26.2001C2.79714 27.654 3.68641 28.9682 4.80435 30.0587C5.10924 30.3663 5.43954 30.6459 5.82065 30.8696C6.76074 31.5407 7.75164 31.9601 8.86958 32.0719C9.2507 32.0999 9.63181 32.0999 10.0129 32.044C10.5465 31.988 11.0546 31.8203 11.5628 31.5966C12.4521 31.1492 13.2397 30.562 13.9257 29.8071C14.6879 28.9962 15.374 28.1294 15.9837 27.2067C16.0346 27.1507 16.06 27.0948 16.1108 27.0948C16.1616 27.1228 16.187 27.1507 16.2378 27.2067C16.8476 28.1294 17.5336 28.9962 18.2958 29.8071C18.9818 30.562 19.7695 31.1772 20.6588 31.5966C21.1415 31.8482 21.6497 32.016 22.2086 32.044C22.5897 32.0999 22.9709 32.0999 23.352 32.0719C24.4699 31.988 25.4862 31.5407 26.4009 30.8696C26.782 30.6459 27.1123 30.3663 27.4172 30.0587C28.5351 28.9403 29.4244 27.654 30.1104 26.2001C30.9235 24.4944 31.4824 22.7049 31.8127 20.8315C32.016 19.6571 32.143 18.5107 32.1938 17.3363C32.2193 16.6093 32.1938 15.9103 32.143 15.2113ZM14.383 24.7461C13.6716 25.9204 12.9348 27.0669 11.9439 27.9616C11.0292 28.7725 9.98752 29.164 8.79336 28.8843C7.72623 28.6047 6.88778 27.9057 6.17636 27.0389C5.16005 25.7247 4.49945 24.1868 4.01671 22.5651C3.43233 20.5519 3.17825 18.4827 3.17825 16.3577C3.17825 16.0501 3.15285 15.7705 3.17825 15.4629C3.22907 14.68 3.35611 13.8971 3.661 13.1421C4.3216 11.6602 6.04932 11.4924 7.04023 12.3033C7.49756 12.6948 7.87868 13.1421 8.23439 13.6455C9.09825 14.8757 9.83507 16.2179 10.5973 17.56C11.8677 19.7969 13.0364 22.1177 14.383 24.3267C14.4847 24.4665 14.4847 24.6063 14.383 24.7461ZM29.0179 16.3297C29.0179 18.4548 28.7384 20.5239 28.1794 22.5371C27.7221 24.1589 27.0615 25.6968 26.0198 27.0109C25.3084 27.9057 24.4953 28.6047 23.4028 28.8564C22.2086 29.1639 21.1923 28.7725 20.2522 27.9337C19.2359 27.0389 18.5245 25.8645 17.8131 24.7181C17.7115 24.5503 17.7115 24.4385 17.8131 24.2707C19.1597 22.1177 20.3285 19.7969 21.5988 17.56C22.3611 16.2458 23.0979 14.9037 23.9618 13.6455C24.3175 13.1421 24.6732 12.6668 25.1559 12.3033C26.1468 11.4924 27.8745 11.6602 28.5351 13.1421C28.8654 13.8691 28.9671 14.6521 29.0179 15.4629C29.0433 15.7425 29.0179 16.0501 29.0179 16.3297Z" fill="url(#paint0_linear_1573_4879)"/>
<path d="M23.4804 5.06099V4.25011L24.4713 3.88662V3.15962L16.0359 0L7.62598 3.18758V3.91458L11.5896 5.36856V6.7107C12.0977 6.62682 12.6059 6.68274 13.0124 6.87847C14.9942 7.80119 15.477 9.87033 16.0613 10.122C17.0268 9.47887 17.8399 7.29789 20.5077 6.7107V4.72545C20.5077 4.30603 20.3044 3.94254 19.9741 3.74681C18.8562 3.1037 17.4842 2.71224 16.0359 2.7402C14.6385 2.7402 13.3427 3.1037 12.2502 3.71885L12.2248 3.35535C12.2502 3.32739 12.2756 3.32739 12.301 3.29943C13.4443 2.54448 14.8164 2.09709 16.3154 2.06913C17.7891 2.04117 19.1865 2.43263 20.3298 3.13166C20.6855 3.32739 20.8888 3.77477 20.8888 4.22215V5.14487L23.1501 4.27807V4.9771C22.9214 5.17283 22.7436 5.73206 22.7182 6.43109H23.9123C23.8869 5.78798 23.7345 5.22876 23.4804 5.06099Z" fill="url(#paint1_linear_1573_4879)"/>
<path d="M50.524 9.50538H53.5414L57.5349 20.9536L57.1134 20.7761L60.2195 12.8112L61.4176 16.3166L56.9803 26.3227L50.524 9.50538ZM58.4446 9.50538H60.996L65.4333 20.7095L64.923 20.6208L68.606 9.50538H71.3793L65.0783 26.2783L58.4446 9.50538ZM75.299 9.41663H77.8948V25.5684H75.299V9.41663ZM91.7033 12.7002C91.1264 12.4044 90.5126 12.153 89.8618 11.9459C89.211 11.724 88.5898 11.6131 87.9981 11.6131C87.1994 11.6131 86.5634 11.7906 86.0901 12.1456C85.6316 12.5005 85.4023 12.9886 85.4023 13.6099C85.4023 14.0536 85.565 14.4456 85.8904 14.7858C86.2158 15.1112 86.63 15.3996 87.1329 15.651C87.6358 15.8877 88.1682 16.1169 88.7303 16.3388C89.2184 16.5163 89.6991 16.7308 90.1724 16.9822C90.6605 17.2189 91.0968 17.5147 91.4814 17.8697C91.866 18.2246 92.1692 18.6684 92.391 19.2009C92.6277 19.7185 92.746 20.3619 92.746 21.1311C92.746 21.9742 92.5316 22.7507 92.1026 23.4606C91.6737 24.1558 91.0599 24.7105 90.2611 25.1246C89.4624 25.5388 88.4862 25.7459 87.3325 25.7459C86.6669 25.7459 86.0087 25.6719 85.3579 25.524C84.7219 25.3761 84.1155 25.1764 83.5387 24.925C82.9618 24.6587 82.4293 24.3629 81.9412 24.0375L83.0949 22.0185C83.4499 22.2848 83.8567 22.5288 84.3152 22.7507C84.7737 22.9725 85.247 23.15 85.7351 23.2832C86.2232 23.4015 86.6817 23.4606 87.1107 23.4606C87.5692 23.4606 88.0203 23.3867 88.464 23.2388C88.9226 23.0909 89.2997 22.8468 89.5956 22.5066C89.9062 22.1664 90.0615 21.7153 90.0615 21.1533C90.0615 20.6947 89.9283 20.3028 89.6621 19.9774C89.3959 19.652 89.0483 19.3709 88.6193 19.1343C88.2052 18.8828 87.7467 18.661 87.2438 18.4687C86.7409 18.2764 86.2232 18.0619 85.6907 17.8253C85.1731 17.5886 84.6924 17.3002 84.2486 16.96C83.8049 16.605 83.4425 16.1761 83.1615 15.6732C82.8805 15.1703 82.7399 14.5491 82.7399 13.8095C82.7399 12.9221 82.947 12.153 83.3612 11.5022C83.7753 10.8514 84.3448 10.3337 85.0695 9.94911C85.8091 9.56454 86.6595 9.35747 87.621 9.32789C88.7599 9.32789 89.7287 9.4684 90.5274 9.74943C91.3409 10.0157 92.0582 10.3411 92.6795 10.7256L91.7033 12.7002ZM97.0287 9.41663H107.745V11.9015H99.6245V16.2057H106.857V18.7127H99.6245V23.0835H108.055V25.5684H97.0287V9.41663ZM124.5 24.3037C124.278 24.4664 123.931 24.6661 123.457 24.9028C122.984 25.1394 122.422 25.3465 121.771 25.524C121.135 25.6867 120.425 25.7606 119.641 25.7459C118.384 25.7311 117.252 25.5092 116.247 25.0803C115.241 24.6365 114.39 24.0449 113.695 23.3053C113 22.551 112.46 21.6931 112.076 20.7317C111.706 19.7555 111.521 18.7201 111.521 17.6256C111.521 16.398 111.713 15.2739 112.098 14.2533C112.482 13.2327 113.03 12.3526 113.74 11.6131C114.45 10.8588 115.293 10.2745 116.269 9.86036C117.245 9.44621 118.31 9.23914 119.464 9.23914C120.484 9.23914 121.394 9.37965 122.193 9.66068C123.006 9.92692 123.687 10.2301 124.234 10.5703L123.213 13.0108C122.799 12.715 122.281 12.4266 121.66 12.1456C121.039 11.8645 120.336 11.724 119.552 11.724C118.842 11.724 118.162 11.8719 117.511 12.1678C116.86 12.4488 116.291 12.8555 115.803 13.388C115.315 13.9057 114.923 14.5121 114.627 15.2073C114.346 15.9025 114.206 16.6568 114.206 17.4703C114.206 18.3134 114.331 19.0899 114.583 19.7999C114.849 20.4951 115.219 21.1015 115.692 21.6192C116.18 22.1369 116.757 22.5436 117.423 22.8394C118.103 23.1205 118.857 23.261 119.686 23.261C120.529 23.261 121.261 23.1352 121.882 22.8838C122.518 22.6176 123.028 22.3217 123.413 21.9963L124.5 24.3037ZM127.835 17.5147C127.835 16.3906 128.049 15.333 128.478 14.342C128.907 13.351 129.499 12.471 130.253 11.7018C131.008 10.9327 131.88 10.3337 132.871 9.90473C133.877 9.461 134.949 9.23914 136.088 9.23914C137.212 9.23914 138.27 9.461 139.261 9.90473C140.267 10.3337 141.147 10.9327 141.901 11.7018C142.67 12.471 143.269 13.351 143.698 14.342C144.142 15.333 144.364 16.3906 144.364 17.5147C144.364 18.6536 144.142 19.7185 143.698 20.7095C143.269 21.7005 142.67 22.5806 141.901 23.3497C141.147 24.1041 140.267 24.6957 139.261 25.1246C138.27 25.5388 137.212 25.7459 136.088 25.7459C134.935 25.7459 133.862 25.5388 132.871 25.1246C131.88 24.6957 131.008 24.1114 130.253 23.3719C129.499 22.6176 128.907 21.7449 128.478 20.7539C128.049 19.7481 127.835 18.6684 127.835 17.5147ZM130.497 17.5147C130.497 18.3134 130.638 19.0603 130.919 19.7555C131.215 20.4507 131.621 21.0645 132.139 21.597C132.657 22.1147 133.256 22.5214 133.936 22.8172C134.617 23.1131 135.356 23.261 136.155 23.261C136.924 23.261 137.641 23.1131 138.307 22.8172C138.987 22.5214 139.579 22.1147 140.082 21.597C140.585 21.0645 140.977 20.4507 141.258 19.7555C141.554 19.0603 141.701 18.3134 141.701 17.5147C141.701 16.7012 141.554 15.9468 141.258 15.2517C140.962 14.5565 140.563 13.9427 140.06 13.4102C139.557 12.8777 138.965 12.4636 138.285 12.1678C137.604 11.8719 136.872 11.724 136.088 11.724C135.304 11.724 134.572 11.8719 133.892 12.1678C133.211 12.4636 132.612 12.8777 132.095 13.4102C131.592 13.9427 131.2 14.5639 130.919 15.2739C130.638 15.969 130.497 16.716 130.497 17.5147ZM147.702 17.5147C147.702 16.3906 147.917 15.333 148.346 14.342C148.775 13.351 149.366 12.471 150.121 11.7018C150.875 10.9327 151.748 10.3337 152.739 9.90473C153.744 9.461 154.817 9.23914 155.956 9.23914C157.08 9.23914 158.137 9.461 159.128 9.90473C160.134 10.3337 161.014 10.9327 161.768 11.7018C162.538 12.471 163.137 13.351 163.565 14.342C164.009 15.333 164.231 16.3906 164.231 17.5147C164.231 18.6536 164.009 19.7185 163.565 20.7095C163.137 21.7005 162.538 22.5806 161.768 23.3497C161.014 24.1041 160.134 24.6957 159.128 25.1246C158.137 25.5388 157.08 25.7459 155.956 25.7459C154.802 25.7459 153.729 25.5388 152.739 25.1246C151.748 24.6957 150.875 24.1114 150.121 23.3719C149.366 22.6176 148.775 21.7449 148.346 20.7539C147.917 19.7481 147.702 18.6684 147.702 17.5147ZM150.365 17.5147C150.365 18.3134 150.505 19.0603 150.786 19.7555C151.082 20.4507 151.489 21.0645 152.006 21.597C152.524 22.1147 153.123 22.5214 153.803 22.8172C154.484 23.1131 155.223 23.261 156.022 23.261C156.791 23.261 157.509 23.1131 158.174 22.8172C158.855 22.5214 159.446 22.1147 159.949 21.597C160.452 21.0645 160.844 20.4507 161.125 19.7555C161.421 19.0603 161.569 18.3134 161.569 17.5147C161.569 16.7012 161.421 15.9468 161.125 15.2517C160.829 14.5565 160.43 13.9427 159.927 13.4102C159.424 12.8777 158.832 12.4636 158.152 12.1678C157.472 11.8719 156.739 11.724 155.956 11.724C155.172 11.724 154.439 11.8719 153.759 12.1678C153.079 12.4636 152.48 12.8777 151.962 13.4102C151.459 13.9427 151.067 14.5639 150.786 15.2739C150.505 15.969 150.365 16.716 150.365 17.5147ZM168.568 9.41663H171.164V23.0835H179.129V25.5684H168.568V9.41663Z" fill="#fff"/>
<defs>
<linearGradient id="paint0_linear_1573_4879" x1="-0.505921" y1="17.5768" x2="31.8889" y2="17.5768" gradientUnits="userSpaceOnUse">
<stop offset="0.286944" stop-color="#fff"/>
<stop offset="0.725276" stop-color="#fff"/>
<stop offset="0.937122" stop-color="#fff"/>
</linearGradient>
<linearGradient id="paint1_linear_1573_4879" x1="7.36134" y1="4.03892" x2="24.3066" y2="4.03892" gradientUnits="userSpaceOnUse">
<stop offset="0.286944" stop-color="#fff"/>
<stop offset="0.725276" stop-color="#fff"/>
<stop offset="0.937122" stop-color="#fff"/>
</linearGradient>
</defs>
</svg>
